<svg version="1.1" id="Layer_1" xmlns="http://www.w3.org/2000/svg" xmlns:xlink="http://www.w3.org/1999/xlink" x="0px" y="0px" viewBox="0 0 1000 1000" style="enable-background:new 0 0 1000 1000;" xml:space="preserve">
<path class="current-fill" d="M499.9,462.2V538h156c-4.6,19.1-12.7,37.2-24.1,53.7c-50.5,72.7-150.7,90.8-223.4,40.3
	c-72.7-50.5-90.8-150.7-40.3-223.4c50.5-72.7,150.7-90.8,223.4-40.3l43.2-62.3c-107-74.3-254.6-47.7-328.9,59.3
	c-74.3,107-47.7,254.6,59.3,328.9c41,28.5,88,42.1,134.5,42.1c74.9,0,148.6-35.4,194.5-101.5c20.3-29.3,33.6-62.3,39.1-96.9h66.3
	c-6,48.1-23.4,94-51.5,134.4c-95,136.8-283.6,170.9-420.5,75.9c-136.8-95-170.9-283.6-75.8-420.5c46-66.3,115.1-110.7,194.5-125
	c79.4-14.3,159.7,3.1,225.9,49.2l43.2-62.3c-82.9-57.6-183.3-79.4-282.6-61.5c-99.3,17.9-185.8,73.5-243.3,156.4
	c-118.9,171.2-76.3,407.1,94.9,526c65.6,45.5,140.6,67.4,215,67.4c119.7,0,237.7-56.7,311-162.3c44.3-63.7,67.6-138.3,67.5-215.5
	V462L499.9,462.2z"/>
</svg>